<?xml version="1.0" encoding="UTF-8"?>
<svg xmlns="http://www.w3.org/2000/svg"
     viewBox="0 0 720 799"
     width="720" height="799">
  <rect width="100%" height="100%" fill="white"/>
<text x="130.0" y="24" font-family="Helvetica, Arial, sans-serif" font-size="15" font-weight="bold" fill="#5F6368" text-anchor="middle">Zarr V2</text>
<text x="360.0" y="24" font-family="Helvetica, Arial, sans-serif" font-size="15" font-weight="bold" fill="#5F6368" text-anchor="middle">Zarr V3</text>
<text x="590.0" y="24" font-family="Helvetica, Arial, sans-serif" font-size="15" font-weight="bold" fill="#5F6368" text-anchor="middle">Zarr V3 + Sharding</text>
<line x1="25.0" y1="34" x2="695.0" y2="34" stroke="#5F6368" stroke-width="0.5" opacity="0.4"/>
<rect x="25.0" y="50" width="210" height="665" rx="8" fill="none" stroke="#5F6368" stroke-width="1.2" stroke-dasharray="5,3"/>
<g><rect x="35.0" y="60" width="190" height="24" rx="3" fill="#FBBC04" stroke="#5F6368" stroke-width="0.4" opacity="0.85"/><text x="43.0" y="76.0" font-family="'SF Mono', 'Menlo', 'Consolas', monospace" font-size="9.5" fill="#5F6368">.zmetadata</text></g>
<g><rect x="35.0" y="87" width="190" height="24" rx="3" fill="#FBBC04" stroke="#5F6368" stroke-width="0.4" opacity="0.85"/><text x="43.0" y="103.0" font-family="'SF Mono', 'Menlo', 'Consolas', monospace" font-size="9.5" fill="#5F6368">.zgroup</text></g>
<g><rect x="35.0" y="114" width="190" height="24" rx="3" fill="#FBBC04" stroke="#5F6368" stroke-width="0.4" opacity="0.85"/><text x="43.0" y="130.0" font-family="'SF Mono', 'Menlo', 'Consolas', monospace" font-size="9.5" fill="#5F6368">.zattrs</text></g>
<g><rect x="35.0" y="141" width="190" height="24" rx="3" fill="#FBBC04" stroke="#5F6368" stroke-width="0.4" opacity="0.85"/><text x="43.0" y="157.0" font-family="'SF Mono', 'Menlo', 'Consolas', monospace" font-size="9.5" fill="#5F6368">lat/.zarray</text></g>
<g><rect x="35.0" y="168" width="190" height="24" rx="3" fill="#FBBC04" stroke="#5F6368" stroke-width="0.4" opacity="0.85"/><text x="43.0" y="184.0" font-family="'SF Mono', 'Menlo', 'Consolas', monospace" font-size="9.5" fill="#5F6368">lat/.zattrs</text></g>
<g><rect x="35.0" y="195" width="190" height="24" rx="3" fill="#34A853" stroke="#5F6368" stroke-width="0.4" opacity="0.85"/><text x="43.0" y="211.0" font-family="'SF Mono', 'Menlo', 'Consolas', monospace" font-size="9.5" fill="#5F6368">lat/0</text></g>
<g><rect x="35.0" y="222" width="190" height="24" rx="3" fill="#FBBC04" stroke="#5F6368" stroke-width="0.4" opacity="0.85"/><text x="43.0" y="238.0" font-family="'SF Mono', 'Menlo', 'Consolas', monospace" font-size="9.5" fill="#5F6368">lon/.zarray</text></g>
<g><rect x="35.0" y="249" width="190" height="24" rx="3" fill="#FBBC04" stroke="#5F6368" stroke-width="0.4" opacity="0.85"/><text x="43.0" y="265.0" font-family="'SF Mono', 'Menlo', 'Consolas', monospace" font-size="9.5" fill="#5F6368">lon/.zattrs</text></g>
<g><rect x="35.0" y="276" width="190" height="24" rx="3" fill="#34A853" stroke="#5F6368" stroke-width="0.4" opacity="0.85"/><text x="43.0" y="292.0" font-family="'SF Mono', 'Menlo', 'Consolas', monospace" font-size="9.5" fill="#5F6368">lon/0</text></g>
<g><rect x="35.0" y="303" width="190" height="24" rx="3" fill="#FBBC04" stroke="#5F6368" stroke-width="0.4" opacity="0.85"/><text x="43.0" y="319.0" font-family="'SF Mono', 'Menlo', 'Consolas', monospace" font-size="9.5" fill="#5F6368">time/.zarray</text></g>
<g><rect x="35.0" y="330" width="190" height="24" rx="3" fill="#FBBC04" stroke="#5F6368" stroke-width="0.4" opacity="0.85"/><text x="43.0" y="346.0" font-family="'SF Mono', 'Menlo', 'Consolas', monospace" font-size="9.5" fill="#5F6368">time/.zattrs</text></g>
<g><rect x="35.0" y="357" width="190" height="24" rx="3" fill="#34A853" stroke="#5F6368" stroke-width="0.4" opacity="0.85"/><text x="43.0" y="373.0" font-family="'SF Mono', 'Menlo', 'Consolas', monospace" font-size="9.5" fill="#5F6368">time/0</text></g>
<g><rect x="35.0" y="384" width="190" height="24" rx="3" fill="#FBBC04" stroke="#5F6368" stroke-width="0.4" opacity="0.85"/><text x="43.0" y="400.0" font-family="'SF Mono', 'Menlo', 'Consolas', monospace" font-size="9.5" fill="#5F6368">temperature/.zarray</text></g>
<g><rect x="35.0" y="411" width="190" height="24" rx="3" fill="#FBBC04" stroke="#5F6368" stroke-width="0.4" opacity="0.85"/><text x="43.0" y="427.0" font-family="'SF Mono', 'Menlo', 'Consolas', monospace" font-size="9.5" fill="#5F6368">temperature/.zattrs</text></g>
<g><rect x="35.0" y="438" width="190" height="24" rx="3" fill="#34A853" stroke="#5F6368" stroke-width="0.4" opacity="0.85"/><text x="43.0" y="454.0" font-family="'SF Mono', 'Menlo', 'Consolas', monospace" font-size="9.5" fill="#5F6368">temperature/0.0.0</text></g>
<g><rect x="35.0" y="465" width="190" height="24" rx="3" fill="#34A853" stroke="#5F6368" stroke-width="0.4" opacity="0.85"/><text x="43.0" y="481.0" font-family="'SF Mono', 'Menlo', 'Consolas', monospace" font-size="9.5" fill="#5F6368">temperature/0.0.1</text></g>
<g><rect x="35.0" y="492" width="190" height="24" rx="3" fill="#34A853" stroke="#5F6368" stroke-width="0.4" opacity="0.85"/><text x="43.0" y="508.0" font-family="'SF Mono', 'Menlo', 'Consolas', monospace" font-size="9.5" fill="#5F6368">temperature/0.0.2</text></g>
<g><rect x="35.0" y="519" width="190" height="24" rx="3" fill="#34A853" stroke="#5F6368" stroke-width="0.4" opacity="0.85"/><text x="43.0" y="535.0" font-family="'SF Mono', 'Menlo', 'Consolas', monospace" font-size="9.5" fill="#5F6368">temperature/0.0.3</text></g>
<g><rect x="35.0" y="546" width="190" height="24" rx="3" fill="#FBBC04" stroke="#5F6368" stroke-width="0.4" opacity="0.85"/><text x="43.0" y="562.0" font-family="'SF Mono', 'Menlo', 'Consolas', monospace" font-size="9.5" fill="#5F6368">precipitation/.zarray</text></g>
<g><rect x="35.0" y="573" width="190" height="24" rx="3" fill="#FBBC04" stroke="#5F6368" stroke-width="0.4" opacity="0.85"/><text x="43.0" y="589.0" font-family="'SF Mono', 'Menlo', 'Consolas', monospace" font-size="9.5" fill="#5F6368">precipitation/.zattrs</text></g>
<g><rect x="35.0" y="600" width="190" height="24" rx="3" fill="#34A853" stroke="#5F6368" stroke-width="0.4" opacity="0.85"/><text x="43.0" y="616.0" font-family="'SF Mono', 'Menlo', 'Consolas', monospace" font-size="9.5" fill="#5F6368">precipitation/0.0.0</text></g>
<g><rect x="35.0" y="627" width="190" height="24" rx="3" fill="#34A853" stroke="#5F6368" stroke-width="0.4" opacity="0.85"/><text x="43.0" y="643.0" font-family="'SF Mono', 'Menlo', 'Consolas', monospace" font-size="9.5" fill="#5F6368">precipitation/0.0.1</text></g>
<g><rect x="35.0" y="654" width="190" height="24" rx="3" fill="#34A853" stroke="#5F6368" stroke-width="0.4" opacity="0.85"/><text x="43.0" y="670.0" font-family="'SF Mono', 'Menlo', 'Consolas', monospace" font-size="9.5" fill="#5F6368">precipitation/0.0.2</text></g>
<g><rect x="35.0" y="681" width="190" height="24" rx="3" fill="#34A853" stroke="#5F6368" stroke-width="0.4" opacity="0.85"/><text x="43.0" y="697.0" font-family="'SF Mono', 'Menlo', 'Consolas', monospace" font-size="9.5" fill="#5F6368">precipitation/0.0.3</text></g>
<rect x="85.5" y="725" width="89.0" height="22" rx="11" fill="#4285F4" opacity="0.9"/><text x="130.0" y="740" font-family="Helvetica, Arial, sans-serif" font-size="11" fill="#FFFFFF" text-anchor="middle" font-weight="bold">24 objects</text>
<rect x="255.0" y="50" width="210" height="476" rx="8" fill="none" stroke="#5F6368" stroke-width="1.2" stroke-dasharray="5,3"/>
<g><rect x="265.0" y="60" width="190" height="24" rx="3" fill="#FBBC04" stroke="#5F6368" stroke-width="0.4" opacity="0.85"/><text x="273.0" y="76.0" font-family="'SF Mono', 'Menlo', 'Consolas', monospace" font-size="9.5" fill="#5F6368">zarr.json</text></g>
<g><rect x="265.0" y="87" width="190" height="24" rx="3" fill="#FBBC04" stroke="#5F6368" stroke-width="0.4" opacity="0.85"/><text x="273.0" y="103.0" font-family="'SF Mono', 'Menlo', 'Consolas', monospace" font-size="9.5" fill="#5F6368">lat/zarr.json</text></g>
<g><rect x="265.0" y="114" width="190" height="24" rx="3" fill="#34A853" stroke="#5F6368" stroke-width="0.4" opacity="0.85"/><text x="273.0" y="130.0" font-family="'SF Mono', 'Menlo', 'Consolas', monospace" font-size="9.5" fill="#5F6368">lat/c/0</text></g>
<g><rect x="265.0" y="141" width="190" height="24" rx="3" fill="#FBBC04" stroke="#5F6368" stroke-width="0.4" opacity="0.85"/><text x="273.0" y="157.0" font-family="'SF Mono', 'Menlo', 'Consolas', monospace" font-size="9.5" fill="#5F6368">lon/zarr.json</text></g>
<g><rect x="265.0" y="168" width="190" height="24" rx="3" fill="#34A853" stroke="#5F6368" stroke-width="0.4" opacity="0.85"/><text x="273.0" y="184.0" font-family="'SF Mono', 'Menlo', 'Consolas', monospace" font-size="9.5" fill="#5F6368">lon/c/0</text></g>
<g><rect x="265.0" y="195" width="190" height="24" rx="3" fill="#FBBC04" stroke="#5F6368" stroke-width="0.4" opacity="0.85"/><text x="273.0" y="211.0" font-family="'SF Mono', 'Menlo', 'Consolas', monospace" font-size="9.5" fill="#5F6368">time/zarr.json</text></g>
<g><rect x="265.0" y="222" width="190" height="24" rx="3" fill="#34A853" stroke="#5F6368" stroke-width="0.4" opacity="0.85"/><text x="273.0" y="238.0" font-family="'SF Mono', 'Menlo', 'Consolas', monospace" font-size="9.5" fill="#5F6368">time/c/0</text></g>
<g><rect x="265.0" y="249" width="190" height="24" rx="3" fill="#FBBC04" stroke="#5F6368" stroke-width="0.4" opacity="0.85"/><text x="273.0" y="265.0" font-family="'SF Mono', 'Menlo', 'Consolas', monospace" font-size="9.5" fill="#5F6368">temperature/zarr.json</text></g>
<g><rect x="265.0" y="276" width="190" height="24" rx="3" fill="#34A853" stroke="#5F6368" stroke-width="0.4" opacity="0.85"/><text x="273.0" y="292.0" font-family="'SF Mono', 'Menlo', 'Consolas', monospace" font-size="9.5" fill="#5F6368">temperature/c/0/0/0</text></g>
<g><rect x="265.0" y="303" width="190" height="24" rx="3" fill="#34A853" stroke="#5F6368" stroke-width="0.4" opacity="0.85"/><text x="273.0" y="319.0" font-family="'SF Mono', 'Menlo', 'Consolas', monospace" font-size="9.5" fill="#5F6368">temperature/c/0/0/1</text></g>
<g><rect x="265.0" y="330" width="190" height="24" rx="3" fill="#34A853" stroke="#5F6368" stroke-width="0.4" opacity="0.85"/><text x="273.0" y="346.0" font-family="'SF Mono', 'Menlo', 'Consolas', monospace" font-size="9.5" fill="#5F6368">temperature/c/0/0/2</text></g>
<g><rect x="265.0" y="357" width="190" height="24" rx="3" fill="#34A853" stroke="#5F6368" stroke-width="0.4" opacity="0.85"/><text x="273.0" y="373.0" font-family="'SF Mono', 'Menlo', 'Consolas', monospace" font-size="9.5" fill="#5F6368">temperature/c/0/0/3</text></g>
<g><rect x="265.0" y="384" width="190" height="24" rx="3" fill="#FBBC04" stroke="#5F6368" stroke-width="0.4" opacity="0.85"/><text x="273.0" y="400.0" font-family="'SF Mono', 'Menlo', 'Consolas', monospace" font-size="9.5" fill="#5F6368">precipitation/zarr.json</text></g>
<g><rect x="265.0" y="411" width="190" height="24" rx="3" fill="#34A853" stroke="#5F6368" stroke-width="0.4" opacity="0.85"/><text x="273.0" y="427.0" font-family="'SF Mono', 'Menlo', 'Consolas', monospace" font-size="9.5" fill="#5F6368">precipitation/c/0/0/0</text></g>
<g><rect x="265.0" y="438" width="190" height="24" rx="3" fill="#34A853" stroke="#5F6368" stroke-width="0.4" opacity="0.85"/><text x="273.0" y="454.0" font-family="'SF Mono', 'Menlo', 'Consolas', monospace" font-size="9.5" fill="#5F6368">precipitation/c/0/0/1</text></g>
<g><rect x="265.0" y="465" width="190" height="24" rx="3" fill="#34A853" stroke="#5F6368" stroke-width="0.4" opacity="0.85"/><text x="273.0" y="481.0" font-family="'SF Mono', 'Menlo', 'Consolas', monospace" font-size="9.5" fill="#5F6368">precipitation/c/0/0/2</text></g>
<g><rect x="265.0" y="492" width="190" height="24" rx="3" fill="#34A853" stroke="#5F6368" stroke-width="0.4" opacity="0.85"/><text x="273.0" y="508.0" font-family="'SF Mono', 'Menlo', 'Consolas', monospace" font-size="9.5" fill="#5F6368">precipitation/c/0/0/3</text></g>
<rect x="315.5" y="536" width="89.0" height="22" rx="11" fill="#4285F4" opacity="0.9"/><text x="360.0" y="551" font-family="Helvetica, Arial, sans-serif" font-size="11" fill="#FFFFFF" text-anchor="middle" font-weight="bold">17 objects</text>
<rect x="485.0" y="50" width="210" height="314" rx="8" fill="none" stroke="#5F6368" stroke-width="1.2" stroke-dasharray="5,3"/>
<g><rect x="495.0" y="60" width="190" height="24" rx="3" fill="#FBBC04" stroke="#5F6368" stroke-width="0.4" opacity="0.85"/><text x="503.0" y="76.0" font-family="'SF Mono', 'Menlo', 'Consolas', monospace" font-size="9.5" fill="#5F6368">zarr.json</text></g>
<g><rect x="495.0" y="87" width="190" height="24" rx="3" fill="#FBBC04" stroke="#5F6368" stroke-width="0.4" opacity="0.85"/><text x="503.0" y="103.0" font-family="'SF Mono', 'Menlo', 'Consolas', monospace" font-size="9.5" fill="#5F6368">lat/zarr.json</text></g>
<g><rect x="495.0" y="114" width="190" height="24" rx="3" fill="#34A853" stroke="#5F6368" stroke-width="0.4" opacity="0.85"/><text x="503.0" y="130.0" font-family="'SF Mono', 'Menlo', 'Consolas', monospace" font-size="9.5" fill="#5F6368">lat/c/0</text></g>
<g><rect x="495.0" y="141" width="190" height="24" rx="3" fill="#FBBC04" stroke="#5F6368" stroke-width="0.4" opacity="0.85"/><text x="503.0" y="157.0" font-family="'SF Mono', 'Menlo', 'Consolas', monospace" font-size="9.5" fill="#5F6368">lon/zarr.json</text></g>
<g><rect x="495.0" y="168" width="190" height="24" rx="3" fill="#34A853" stroke="#5F6368" stroke-width="0.4" opacity="0.85"/><text x="503.0" y="184.0" font-family="'SF Mono', 'Menlo', 'Consolas', monospace" font-size="9.5" fill="#5F6368">lon/c/0</text></g>
<g><rect x="495.0" y="195" width="190" height="24" rx="3" fill="#FBBC04" stroke="#5F6368" stroke-width="0.4" opacity="0.85"/><text x="503.0" y="211.0" font-family="'SF Mono', 'Menlo', 'Consolas', monospace" font-size="9.5" fill="#5F6368">time/zarr.json</text></g>
<g><rect x="495.0" y="222" width="190" height="24" rx="3" fill="#34A853" stroke="#5F6368" stroke-width="0.4" opacity="0.85"/><text x="503.0" y="238.0" font-family="'SF Mono', 'Menlo', 'Consolas', monospace" font-size="9.5" fill="#5F6368">time/c/0</text></g>
<g><rect x="495.0" y="249" width="190" height="24" rx="3" fill="#FBBC04" stroke="#5F6368" stroke-width="0.4" opacity="0.85"/><text x="503.0" y="265.0" font-family="'SF Mono', 'Menlo', 'Consolas', monospace" font-size="9.5" fill="#5F6368">temperature/zarr.json</text></g>
<g><rect x="495.0" y="276" width="190" height="24" rx="3" fill="#0D652D" stroke="#5F6368" stroke-width="0.4" opacity="0.85"/><text x="503.0" y="292.0" font-family="'SF Mono', 'Menlo', 'Consolas', monospace" font-size="9.5" fill="#FFFFFF">temperature/c/0/0/0</text></g>
<g><rect x="495.0" y="303" width="190" height="24" rx="3" fill="#FBBC04" stroke="#5F6368" stroke-width="0.4" opacity="0.85"/><text x="503.0" y="319.0" font-family="'SF Mono', 'Menlo', 'Consolas', monospace" font-size="9.5" fill="#5F6368">precipitation/zarr.json</text></g>
<g><rect x="495.0" y="330" width="190" height="24" rx="3" fill="#0D652D" stroke="#5F6368" stroke-width="0.4" opacity="0.85"/><text x="503.0" y="346.0" font-family="'SF Mono', 'Menlo', 'Consolas', monospace" font-size="9.5" fill="#FFFFFF">precipitation/c/0/0/0</text></g>
<rect x="545.5" y="374" width="89.0" height="22" rx="11" fill="#4285F4" opacity="0.9"/><text x="590.0" y="389" font-family="Helvetica, Arial, sans-serif" font-size="11" fill="#FFFFFF" text-anchor="middle" font-weight="bold">11 objects</text>
<line x1="245.0" y1="10" x2="245.0" y2="745" stroke="#5F6368" stroke-width="0.5" stroke-dasharray="4,3" opacity="0.3"/>
<line x1="475.0" y1="10" x2="475.0" y2="745" stroke="#5F6368" stroke-width="0.5" stroke-dasharray="4,3" opacity="0.3"/>
<rect x="55.0" y="765" width="40" height="18" rx="3" fill="#FBBC04" stroke="#5F6368" stroke-width="0.4"/>
<text x="103.0" y="778" font-family="Helvetica, Arial, sans-serif" font-size="9.5" fill="#5F6368">JSON metadata</text>
<rect x="205.0" y="765" width="40" height="18" rx="3" fill="#34A853" stroke="#5F6368" stroke-width="0.4"/>
<text x="253.0" y="778" font-family="Helvetica, Arial, sans-serif" font-size="9.5" fill="#5F6368">Chunk</text>
<rect x="355.0" y="765" width="40" height="18" rx="3" fill="#0D652D" stroke="#5F6368" stroke-width="0.4"/>
<text x="403.0" y="778" font-family="Helvetica, Arial, sans-serif" font-size="9.5" fill="#5F6368">Shard</text>
</svg>